# xmcd
#
# Track frame offsets:
#	150
#	14023
#	29758
#	39406
#	52057
#	60041
#	71314
#	81655
#	94475
#	106720
#	119815
#	134630
#
# Disc length: 1939 seconds
#
# Revision: 0
# Processed by: cddbd v1.5.1PL2 Copyright (c) Steve Scherf et al.
# Submitted via: dBpowerAMP V4.0
#
DISCID=af07910c
DTITLE=Unknown - Blue Grass Gospel CD1
DYEAR=2005
DGENRE=Bluegrass
TTITLE0=I am a Man of Constaint Sorrow
TTITLE1=Just a Closer Walk
TTITLE2=Power In the Blood
TTITLE3=What a Friend We Have in Jesus
TTITLE4=Amazing Grace
TTITLE5=When We All Get to Heaven
TTITLE6=When the Roll is Called Up Yonder
TTITLE7=Wonderful Words of Life
TTITLE8=To God Be The Glory
TTITLE9=Jesus Loves Me
TTITLE10=When I Survey
TTITLE11=Count Your Blessings
EXTD=
EXTT0=
EXTT1=
EXTT2=
EXTT3=
EXTT4=
EXTT5=
EXTT6=
EXTT7=
EXTT8=
EXTT9=
EXTT10=
EXTT11=
PLAYORDER=
